<svg width="66" height="66" viewBox="0 0 66 66" fill="none" xmlns="http://www.w3.org/2000/svg">
<path d="M65.1791 32.7891C65.1791 14.6797 50.5889 0 32.5936 0C14.5901 0.00407318 0 14.6797 0 32.7932C0 49.1552 11.9181 62.7189 27.494 65.1791V42.2674H19.2254V32.7932H27.5021V25.5633C27.5021 17.3477 32.3696 12.8102 39.8113 12.8102C43.3794 12.8102 47.1063 13.4496 47.1063 13.4496V21.5145H42.9965C38.9518 21.5145 37.6891 24.044 37.6891 26.6386V32.7891H46.7235L45.2816 42.2633H37.6851V65.175C53.2609 62.7148 65.1791 49.1511 65.1791 32.7891Z" fill="url(#paint0_linear_2_21)"/>
<defs>
<linearGradient id="paint0_linear_2_21" x1="55.7211" y1="-8.39338e-07" x2="8.47222" y2="57.6763" gradientUnits="userSpaceOnUse">
<stop stop-color="#00F0FF"/>
<stop offset="1" stop-color="#EB00FF"/>
</linearGradient>
</defs>
</svg>
