<?xml version="1.0" encoding="UTF-8" standalone="no" ?>
<!DOCTYPE svg PUBLIC "-//W3C//DTD SVG 1.1//EN" "http://www.w3.org/Graphics/SVG/1.1/DTD/svg11.dtd">
<svg xmlns="http://www.w3.org/2000/svg" xmlns:xlink="http://www.w3.org/1999/xlink" version="1.1" width="1080" height="1080" viewBox="0 0 1080 1080" xml:space="preserve">
<desc>Created with Fabric.js 4.2.0</desc>
<defs>
</defs>
<rect x="0" y="0" width="100%" height="100%" fill="transparent"></rect>
<g transform="matrix(1 0 0 1 540 540)" id="850d18e7-bcdb-4bb3-8b9a-efd1e9d8209f"  >
</g>
<g transform="matrix(1 0 0 1 540 540)" id="2f4faf54-a041-45fa-ad03-205d44f707c0"  >
<rect style="stroke: none; stroke-width: 1; stroke-dasharray: none; stroke-linecap: butt; stroke-dashoffset: 0; stroke-linejoin: miter; stroke-miterlimit: 4; fill: rgb(1,1,1); fill-opacity: 0; fill-rule: nonzero; opacity: 1;" vector-effect="non-scaling-stroke"  x="-540" y="-540" rx="0" ry="0" width="1080" height="1080" />
</g>
<g transform="matrix(19.7 0 0 19.7 566.27 540)"  >
<g style="" vector-effect="non-scaling-stroke"   >
		<g transform="matrix(1 0 0 1 -14.93 0)"  >
<rect style="stroke: none; stroke-width: 1; stroke-dasharray: none; stroke-linecap: butt; stroke-dashoffset: 0; stroke-linejoin: miter; stroke-miterlimit: 4; fill: rgb(43,123,123); fill-rule: nonzero; opacity: 1;" vector-effect="non-scaling-stroke"  x="-5.925" y="-25.5" rx="5.92746" ry="5.92746" width="11.85" height="51" />
</g>
		<g transform="matrix(1 0 0 1 -14.93 0)"  >
<rect style="stroke: rgb(0,0,0); stroke-width: 1; stroke-dasharray: none; stroke-linecap: butt; stroke-dashoffset: 0; stroke-linejoin: miter; stroke-miterlimit: 4; fill: none; fill-rule: nonzero; opacity: 1;" vector-effect="non-scaling-stroke"  x="-5.425" y="-25" rx="5.42746" ry="5.42746" width="10.85" height="50" />
</g>
		<g transform="matrix(0 -1 1 0 0 0.01)"  >
<rect style="stroke: none; stroke-width: 1; stroke-dasharray: none; stroke-linecap: butt; stroke-dashoffset: 0; stroke-linejoin: miter; stroke-miterlimit: 4; fill: rgb(29,125,125); fill-rule: nonzero; opacity: 1;" vector-effect="non-scaling-stroke"  x="-6.435" y="-22" rx="6.43689" ry="6.43689" width="12.87" height="44" />
</g>
		<g transform="matrix(0 -1 1 0 0 0.01)"  >
<rect style="stroke: rgb(0,0,0); stroke-width: 1; stroke-dasharray: none; stroke-linecap: butt; stroke-dashoffset: 0; stroke-linejoin: miter; stroke-miterlimit: 4; fill: none; fill-rule: nonzero; opacity: 1;" vector-effect="non-scaling-stroke"  x="-5.935" y="-21.5" rx="5.93689" ry="5.93689" width="11.87" height="43" />
</g>
		<g transform="matrix(1 0 0 1 9.46 0)"  >
<rect style="stroke: none; stroke-width: 1; stroke-dasharray: none; stroke-linecap: butt; stroke-dashoffset: 0; stroke-linejoin: miter; stroke-miterlimit: 4; fill: rgb(43,123,123); fill-rule: nonzero; opacity: 1;" vector-effect="non-scaling-stroke"  x="-5.925" y="-25.5" rx="5.92746" ry="5.92746" width="11.85" height="51" />
</g>
		<g transform="matrix(1 0 0 1 9.46 0)"  >
<rect style="stroke: rgb(0,0,0); stroke-width: 1; stroke-dasharray: none; stroke-linecap: butt; stroke-dashoffset: 0; stroke-linejoin: miter; stroke-miterlimit: 4; fill: none; fill-rule: nonzero; opacity: 1;" vector-effect="non-scaling-stroke"  x="-5.425" y="-25" rx="5.42746" ry="5.42746" width="10.85" height="50" />
</g>
</g>
</g>
</svg>