<svg width="75" height="74" viewBox="0 0 75 74" fill="none" xmlns="http://www.w3.org/2000/svg">
<g filter="url(#filter0_d_2_17)">
<path d="M32.5895 0C23.7455 0 22.6334 0.0407369 19.1586 0.195537C15.6837 0.358485 13.3169 0.904359 11.2434 1.71095C9.06842 2.52903 7.09837 3.81227 5.47097 5.47097C3.81329 7.09921 2.5302 9.06901 1.71095 11.2434C0.904359 13.3128 0.354411 15.6837 0.195537 19.1463C0.0407369 22.6294 0 23.7374 0 32.5936C0 41.4417 0.0407369 42.5497 0.195537 46.0246C0.358485 49.4953 0.904359 51.8622 1.71095 53.9357C2.54606 56.0784 3.65817 57.8953 5.47097 59.7081C7.27969 61.5209 9.09655 62.6371 11.2393 63.4681C13.3169 64.2747 15.6796 64.8246 19.1504 64.9835C22.6294 65.1383 23.7374 65.1791 32.5895 65.1791C41.4417 65.1791 42.5456 65.1383 46.0246 64.9835C49.4913 64.8206 51.8662 64.2747 53.9397 63.4681C56.1133 62.6496 58.0819 61.3664 59.7081 59.7081C61.5209 57.8953 62.633 56.0784 63.4681 53.9357C64.2706 51.8622 64.8206 49.4953 64.9835 46.0246C65.1383 42.5497 65.1791 41.4417 65.1791 32.5895C65.1791 23.7374 65.1383 22.6294 64.9835 19.1504C64.8206 15.6837 64.2706 13.3128 63.4681 11.2434C62.649 9.06895 61.3659 7.09912 59.7081 5.47097C58.0812 3.81165 56.111 2.52832 53.9357 1.71095C51.8581 0.904359 49.4872 0.354411 46.0205 0.195537C42.5416 0.0407369 41.4376 0 32.5814 0H32.5936H32.5895ZM29.6687 5.87426H32.5936C41.295 5.87426 42.3256 5.90278 45.7598 6.06165C48.9372 6.20423 50.6645 6.73788 51.8133 7.18192C53.3328 7.7726 54.4204 8.48142 55.5611 9.62206C56.7017 10.7627 57.4065 11.8463 57.9971 13.3699C58.4452 14.5146 58.9748 16.2418 59.1174 19.4193C59.2763 22.8534 59.3089 23.8841 59.3089 32.5814C59.3089 41.2787 59.2763 42.3134 59.1174 45.7475C58.9748 48.925 58.4412 50.6482 57.9971 51.797C57.4747 53.212 56.6407 54.4915 55.557 55.5407C54.4164 56.6813 53.3328 57.3861 51.8092 57.9768C50.6686 58.4249 48.9413 58.9545 45.7598 59.1011C42.3256 59.2559 41.295 59.2926 32.5936 59.2926C23.8922 59.2926 22.8575 59.2559 19.4234 59.1011C16.2459 58.9545 14.5227 58.4249 13.3739 57.9768C11.9583 57.455 10.6777 56.6226 9.62613 55.5407C8.54151 54.4898 7.70629 53.2092 7.18192 51.7929C6.73788 50.6482 6.20423 48.921 6.06165 45.7435C5.90685 42.3094 5.87426 41.2787 5.87426 32.5732C5.87426 23.8718 5.90685 22.8453 6.06165 19.4111C6.20831 16.2337 6.73788 14.5064 7.18599 13.3576C7.77668 11.8381 8.4855 10.7505 9.62613 9.60984C10.7668 8.4692 11.8504 7.76445 13.3739 7.17377C14.5227 6.72566 16.2459 6.19608 19.4234 6.04943C22.4297 5.91093 23.5948 5.87019 29.6687 5.86612V5.87426V5.87426ZM49.9883 11.2841C49.4747 11.2841 48.9662 11.3853 48.4917 11.5818C48.0172 11.7783 47.5861 12.0664 47.2229 12.4296C46.8598 12.7927 46.5717 13.2238 46.3752 13.6983C46.1787 14.1728 46.0775 14.6813 46.0775 15.1949C46.0775 15.7084 46.1787 16.217 46.3752 16.6914C46.5717 17.1659 46.8598 17.597 47.2229 17.9602C47.5861 18.3233 48.0172 18.6114 48.4917 18.8079C48.9662 19.0045 49.4747 19.1056 49.9883 19.1056C51.0255 19.1056 52.0202 18.6936 52.7536 17.9602C53.487 17.2268 53.899 16.2321 53.899 15.1949C53.899 14.1577 53.487 13.163 52.7536 12.4296C52.0202 11.6961 51.0255 11.2841 49.9883 11.2841V11.2841ZM32.5936 15.8548C30.3737 15.8202 28.1691 16.2275 26.1082 17.053C24.0472 17.8786 22.1711 19.1059 20.589 20.6635C19.007 22.2211 17.7506 24.0778 16.8929 26.1256C16.0353 28.1735 15.5937 30.3714 15.5937 32.5916C15.5937 34.8117 16.0353 37.0097 16.8929 39.0575C17.7506 41.1053 19.007 42.9621 20.589 44.5196C22.1711 46.0772 24.0472 47.3045 26.1082 48.1301C28.1691 48.9556 30.3737 49.363 32.5936 49.3283C36.9872 49.2598 41.1777 47.4663 44.2606 44.335C47.3434 41.2037 49.0713 36.9857 49.0713 32.5916C49.0713 28.1974 47.3434 23.9794 44.2606 20.8481C41.1777 17.7168 36.9872 15.9234 32.5936 15.8548V15.8548ZM32.5936 21.725C35.4751 21.725 38.2385 22.8696 40.276 24.9071C42.3135 26.9446 43.4581 29.7081 43.4581 32.5895C43.4581 35.471 42.3135 38.2344 40.276 40.2719C38.2385 42.3094 35.4751 43.4541 32.5936 43.4541C29.7121 43.4541 26.9487 42.3094 24.9112 40.2719C22.8737 38.2344 21.7291 35.471 21.7291 32.5895C21.7291 29.7081 22.8737 26.9446 24.9112 24.9071C26.9487 22.8696 29.7121 21.725 32.5936 21.725V21.725Z" fill="url(#paint0_linear_2_17)"/>
</g>
<defs>
<filter id="filter0_d_2_17" x="0" y="0" width="74.1791" height="73.1791" filterUnits="userSpaceOnUse" color-interpolation-filters="sRGB">
<feFlood flood-opacity="0" result="BackgroundImageFix"/>
<feColorMatrix in="SourceAlpha" type="matrix" values="0 0 0 0 0 0 0 0 0 0 0 0 0 0 0 0 0 0 127 0" result="hardAlpha"/>
<feOffset dx="5" dy="4"/>
<feGaussianBlur stdDeviation="2"/>
<feComposite in2="hardAlpha" operator="out"/>
<feColorMatrix type="matrix" values="0 0 0 0 0 0 0 0 0 0 0 0 0 0 0 0 0 0 0.25 0"/>
<feBlend mode="normal" in2="BackgroundImageFix" result="effect1_dropShadow_2_17"/>
<feBlend mode="normal" in="SourceGraphic" in2="effect1_dropShadow_2_17" result="shape"/>
</filter>
<linearGradient id="paint0_linear_2_17" x1="7.71857" y1="73.7552" x2="65.1791" y2="3.05431e-06" gradientUnits="userSpaceOnUse">
<stop stop-color="#FF00F5"/>
<stop offset="1" stop-color="#00FFE0"/>
</linearGradient>
</defs>
</svg>
